<svg xmlns="http://www.w3.org/2000/svg" viewBox="0 0 2582.4 1910.67"><defs><style>.cls-1{fill:#e99932;}.cls-2{font-size:200px;fill:#fff;font-family:ArialRoundedMTBold, Arial Rounded MT Bold;}.cls-3{letter-spacing:-0.05em;}.cls-4{letter-spacing:-0.09em;}.cls-5{letter-spacing:-0.01em;}.cls-6,.cls-8{fill:#d0221c;}.cls-7{fill:#e2d52d;}.cls-10,.cls-11,.cls-7,.cls-9{stroke:#000;}.cls-10,.cls-11,.cls-7,.cls-8,.cls-9{stroke-linecap:round;stroke-linejoin:round;}.cls-11,.cls-7,.cls-8,.cls-9{stroke-width:10px;}.cls-8{stroke:#070707;}.cls-10,.cls-9{fill:#6d6d61;}.cls-10{stroke-width:6.9px;}.cls-11{fill:none;}</style></defs><title>logo-KATI_naranja4</title><g id="Capa_1" data-name="Capa 1"><path class="cls-1" d="M2611.62,1732.63c-38.89-55.5-852.5-1237.62-1110.16-1612-48.69-70.75-185.14-146.46-311.83,17.7C914.53,529.7,110.21,1674.07,89.79,1704.48c-64,95.38-4.61,234.2,98.29,234.2H2524.54C2630,1938.68,2686.13,1839,2611.62,1732.63Zm-390.55-100.29c10.19,17.6,15.61,36.93,5.82,53.93a53.8,53.8,0,0,1-47,27.13H506.57a54.28,54.28,0,0,1-47-81.4l651.05-948.41,55.56-79,33.29-50.4L1289,423.67a72.89,72.89,0,0,1,63.55-36.46h0a72.9,72.9,0,0,1,63.78,36.84l122,189.83" transform="translate(-63.29 -40.1)"/><text class="cls-2" transform="translate(343.84 1577.66) rotate(-55.49)">ESPELEOC<tspan class="cls-3" x="1094.24" y="0">L</tspan><tspan x="1205.08" y="0">UB</tspan></text><text class="cls-2" transform="translate(1488.2 480.44) rotate(56.74)">K<tspan class="cls-4" x="148.05" y="0">A</tspan><tspan x="274.32" y="0">TIUSKAS</tspan></text><text class="cls-2" transform="translate(546.66 1868.48) rotate(-0.04)">DE MÓS<tspan class="cls-5" x="789.84" y="0">T</tspan><tspan x="912.21" y="0">OLES</tspan></text><path d="M981,1335.23c-16.26,0-16.44-7.24-16.26-16.2,4.87-234.77,106.86-320.68,110.44-324.66s31.57-31.91,45.33-39.37c-1.65,6.51,15.8,11.21,20.49,14.09-3.2,2.86-31.5,1.73-46.59,15.56-11,10.06-9.46,35.29-13.15,40.35-8.58,11.76-84.86,85.29-84,293.91C997.28,1327.89,997.24,1335.23,981,1335.23Z" transform="translate(-63.29 -40.1)"/><path class="cls-6" d="M1527.85,728.57c1.69-25,11.49-39.21,20.71-47.28,5.68-5,13.63-11,14.78-15.38,1-1.32,4.41,24.73,16.78,40.46,27.9,35.47,11.19,70.8-13.77,81.13-4,1.68-6.17-1.44-10.18,0,0,0,13.68-18.75,12-40.66-1-13.53-13.49-26.34-13.49-26.34s8.66,39-11.66,52.54C1537.45,764.67,1526.52,748.24,1527.85,728.57Z" transform="translate(-63.29 -40.1)"/><path d="M1520.15,1625.51c-5-25.48-34.21-43.54-81.92-53.24-14.63-3-29.22-10-43-20.46l-.06,0h0c-31-23.58-57.69-64.32-70.5-113.76-3.49-13.48-2.46-33.76,3.37-69.48-68.6-94.2-232.48-380-232.48-380l16.93,5s148.06,260,218.24,358.67c27.06-156,91.89-367.58,91.89-367.58-94.39-85.3-358.76-34-358.76-34s-11.61,198.77-8.26,303.45c2.75,85.79-60.2,186.47-83,220-4.71,6.93-4.64,15.1,13,36.26,18.7,24.66,117.47,77.53,142.67,91.57,3.72,2.08,6.71.57,8.49-2.69,2.54-4.66,5.5-8,11.74-9,10.61-1.67,58.47,19.09,60.65,34.37,1.27,8.86,15.07,30.84,41.93,47.74,23.47,14.76,69.58,28,108.46,33.76,5.56.83,12.75-8,17.92-7.46,7.47.74,12.66,10.61,18.89,10.6,40.74-.07,49.21-9.56,49.21-9.56s3.86-6.27,5.39-8.74,6.81-2.71,8.35-1.59l14.35,10.44a112.62,112.62,0,0,0,16.93-1.76c27.5-5.54,31.15-19.57,31.15-19.57A177.25,177.25,0,0,0,1520.15,1625.51Z" transform="translate(-63.29 -40.1)"/><path d="M1510.77,1606.31c-12.93-15.52-37.86-27-72.54-34-12.22-2.48-24.41-7.82-36.1-15.59,1.42,15.47,2.07,28.49,2.37,37.57a18.6,18.6,0,0,0,14.29,17.45l17.57,4.21c13.24,3.18,46.23,1.81,80.1-.85A78.94,78.94,0,0,0,1510.77,1606.31Z" transform="translate(-63.29 -40.1)"/><path d="M1968.72,1436.27a177.53,177.53,0,0,0-32.49-41.87c-19-17.69-53.29-15.06-97.57,5.18s-113.86,5.06-170.79-41.75S1487.4,953.28,1487.4,953.28c-126.51-13.41-381.29,29.12-381.29,29.12s171.68,302.48,236,385.13c39.07,50.21,52.17,119.58,57.7,173.13,15,9.74,26.37,15.21,44.81,20,29.14,7.52,56.56,21,68.22,39.75,1.75,2.56,5.05,12,6.41,14.47,35.72-2.88,71.84-7.1,86.34-8.86,4.23-.51,5.76-3.5,5.28-7.18-.68-5.26-.28-9.73,4.18-14.2,7.6-7.59,58.52-19,69.27-7.9,6.23,6.41,30.33,16.06,62,13.91,27.67-1.87,72.71-18.35,107.56-36.54,5-2.59,5.61-14,10.1-16.58,6.47-3.8,16.48,1.13,21.5-2.54,32.9-24,34.16-36.69,34.16-36.69s-.56-7.35-.79-10.24,3.92-6.21,5.82-6.21h17.74a112.54,112.54,0,0,0,12.66-11.38C1974,1449.76,1968.72,1436.27,1968.72,1436.27Z" transform="translate(-63.29 -40.1)"/><path class="cls-7" d="M1563.67,822.52s19-9.48,51.1-8.16c2.47.11,12,1.84,12,13.93v71.56c0,7.35,0,14.51-7.57,15.7-25.94,4.08-36-5.19-39.71-8.68C1568,896.1,1551.73,834.92,1563.67,822.52Z" transform="translate(-63.29 -40.1)"/><path class="cls-8" d="M1338.21,1022.1C1508,1020.42,1585.71,959,1585,946.92c-3.8-62.35-31.62-257.67-230.53-292,0,0-293.45-47.92-303.62,305.82C1050.71,964.81,1138.45,1024.08,1338.21,1022.1Z" transform="translate(-63.29 -40.1)"/><polygon points="1374.31 733.44 1384.23 753.54 1406.41 756.77 1390.36 772.41 1394.15 794.5 1374.31 784.08 1354.47 794.5 1358.26 772.41 1342.21 756.77 1364.39 753.54 1374.31 733.44"/><polygon points="1293.91 733.44 1303.83 753.54 1326.01 756.77 1309.96 772.41 1313.75 794.5 1293.91 784.08 1274.07 794.5 1277.86 772.41 1261.81 756.77 1283.99 753.54 1293.91 733.44"/><polygon points="1213.51 733.44 1223.43 753.54 1245.61 756.77 1229.56 772.41 1233.35 794.5 1213.51 784.08 1193.67 794.5 1197.46 772.41 1181.41 756.77 1203.59 753.54 1213.51 733.44"/><polygon points="1133.11 733.44 1143.03 753.54 1165.21 756.77 1149.16 772.41 1152.95 794.5 1133.11 784.08 1113.27 794.5 1117.06 772.41 1101.01 756.77 1123.19 753.54 1133.11 733.44"/><polygon points="1175.22 797.57 1185.14 817.67 1207.33 820.9 1191.27 836.54 1195.06 858.63 1175.22 848.2 1155.38 858.63 1159.17 836.54 1143.12 820.9 1165.3 817.67 1175.22 797.57"/><polygon points="1255.62 797.57 1265.54 817.67 1287.73 820.9 1271.67 836.54 1275.46 858.63 1255.62 848.2 1235.78 858.63 1239.57 836.54 1223.52 820.9 1245.7 817.67 1255.62 797.57"/><polygon points="1336.03 797.57 1345.95 817.67 1368.13 820.9 1352.08 836.54 1355.87 858.63 1336.03 848.2 1316.18 858.63 1319.97 836.54 1303.92 820.9 1326.11 817.67 1336.03 797.57"/><path class="cls-9" d="M1607.87,814.36s45-4.56,45.92,21.94c0,0,0,53.88,0,64.24s-16.48,18.93-45.91,16Z" transform="translate(-63.29 -40.1)"/><path class="cls-7" d="M1109.06,777.32c2.85-6.51,3.44-17.1-5.1-20.78-10.56-4.54-24.33-6.2-36.07,8.91-16.87,21.7-41.14,116.86-41.14,116.86s-7.68,22.67,7.09,31.55a121.5,121.5,0,0,0,11.82,6.27,15.27,15.27,0,0,0,21.21-10.32C1073.63,881.72,1087.39,826.83,1109.06,777.32Z" transform="translate(-63.29 -40.1)"/><path d="M1070.45,1212.48c-32.93-84.07-68.37-96.75-79.39-98.53-9.79-1.58-18.21,2.9-26.21,10.38-38.86,36.33-49.1,150.47-49.76,191.38a16.26,16.26,0,0,1-16.26,16h-.28a16.25,16.25,0,0,1-16-16.53c.1-6.57,3.28-161.46,60.07-214.59,14.29-13.36,30.93-20.16,49-19.14,8.92-.69,45.2,7.22,79.91,63.68Z" transform="translate(-63.29 -40.1)"/><path class="cls-10" d="M864.67,1314.59s57.91-13.41,160.5-.79c0,0,5.69,8.42-10.83,13.64S883.35,1338.49,864.67,1314.59Z" transform="translate(-63.29 -40.1)"/><path class="cls-8" d="M919.81,1318.45s.38-32.36.72-37.3,12.6-7.27,23.73-4.94c7.7,1.61,7.06,5.37,7.06,5.37v36.87A179.5,179.5,0,0,1,919.81,1318.45Z" transform="translate(-63.29 -40.1)"/><path class="cls-10" d="M986,1289.75v25.42c0,3.94,9.25,7.14,20.65,7.14s20.64-3.2,20.64-7.14v-25.42Z" transform="translate(-63.29 -40.1)"/><ellipse class="cls-10" cx="943.39" cy="1249.29" rx="21.14" ry="7.31"/><path class="cls-9" d="M1060.53,1632.23c-1.82,12.12-6.24,20.77-20,28.64-43.46,24.85-149,16.63-183.37,0-14.66-6-18.17-16.52-20-28.64-3.14-20.9.39-137.3.39-137.3s-1.54-19.56,14.78-30.42l1.73-29.55s-4.34-6.08-4.34-18.25,1.15-81.33,1.15-86.06c0-9.56,11.8-18,21.13-17,70.7,16.61,153.69,0,153.69,0,9.33-1,21.13,7.44,21.13,17,0,4.73,1.15,73.9,1.15,86.06s-4.35,18.25-4.35,18.25l1.74,29.55c16.32,10.86,14.77,30.42,14.77,30.42S1063.68,1611.33,1060.53,1632.23Z" transform="translate(-63.29 -40.1)"/><path class="cls-11" d="M854.07,1435s107.76,29.55,189.56,0" transform="translate(-63.29 -40.1)"/><path class="cls-11" d="M852.34,1464.51s107.54,34.76,193,0" transform="translate(-63.29 -40.1)"/></g></svg>